<?xml version="1.0" encoding="UTF-8" standalone="no"?>
<svg
   xmlns:dc="http://purl.org/dc/elements/1.1/"
   xmlns:cc="http://creativecommons.org/ns#"
   xmlns:rdf="http://www.w3.org/1999/02/22-rdf-syntax-ns#"
   xmlns:svg="http://www.w3.org/2000/svg"
   xmlns="http://www.w3.org/2000/svg"
   xmlns:sodipodi="http://sodipodi.sourceforge.net/DTD/sodipodi-0.dtd"
   xmlns:inkscape="http://www.inkscape.org/namespaces/inkscape"
   version="1.1"
   id="svg2"
   viewBox="0 0 1000 423.42819"
   height="423.42819"
   width="1000"
   inkscape:version="0.48.5 r10040"
   sodipodi:docname="tima_logo.svg">
  <sodipodi:namedview
     pagecolor="#ffffff"
     bordercolor="#666666"
     borderopacity="1"
     objecttolerance="10"
     gridtolerance="10"
     guidetolerance="10"
     inkscape:pageopacity="0"
     inkscape:pageshadow="2"
     inkscape:window-width="1920"
     inkscape:window-height="1056"
     id="namedview14"
     showgrid="false"
     fit-margin-top="0"
     fit-margin-left="0"
     fit-margin-right="0"
     fit-margin-bottom="0"
     inkscape:zoom="0.27747101"
     inkscape:cx="-43.247764"
     inkscape:cy="516.20647"
     inkscape:window-x="0"
     inkscape:window-y="24"
     inkscape:window-maximized="1"
     inkscape:current-layer="svg2" />
  <defs
     id="defs4" />
  <metadata
     id="metadata7">
    <rdf:RDF>
      <cc:Work
         rdf:about="">
        <dc:format>image/svg+xml</dc:format>
        <dc:type
           rdf:resource="http://purl.org/dc/dcmitype/StillImage" />
        <dc:title />
      </cc:Work>
    </rdf:RDF>
  </metadata>
  <g
     transform="translate(-3.5e-6,-628.93405)"
     id="layer1">
    <g
       style="fill:#003d73;fill-opacity:1"
       id="g4223" />
    <g
       transform="matrix(2.8151203,0,0,2.8151203,-408.19244,354.64125)"
       id="g4235">
      <path
         id="path3342"
         d="m 175,137.3622 -30,0 0,-20 85,0 0,20 -30,0 0,90 -25,0 z"
         style="fill:#003d73;fill-opacity:1;fill-rule:evenodd;stroke:none"
         inkscape:connector-curvature="0" />
      <path
         id="path3344"
         d="m 241.74153,117.3622 0,110 25,0 0,-110 z"
         style="fill:#003d73;fill-opacity:1;fill-rule:evenodd;stroke:none"
         inkscape:connector-curvature="0" />
      <path
         id="path3346"
         d="m 278.48306,117.3622 0,110 25,0 0,-66.42857 20,66.42904 20,0 20,-66.42904 0,66.42857 25,0 0,-110 -30,0 -25,85.75889 -25,-85.75889 z"
         style="fill:#003d73;fill-opacity:1;fill-rule:evenodd;stroke:none"
         inkscape:connector-curvature="0" />
      <path
         id="path3348"
         d="m 400.22461,227.3622 35,-110 30,0 35,110 -25,0 -25,-85 -25,85 z"
         style="fill:#003d73;fill-opacity:1;fill-rule:evenodd;stroke:none"
         inkscape:connector-curvature="0" />
      <path
         style="fill:#008aff;fill-opacity:1;fill-rule:evenodd;stroke:none"
         d="m 450.22841,179.50586 -13.55225,47.85608 8.55225,0 0,10.48572 -300.22841,0 0,10 300.49922,0 c 6.87177,0 9.72919,-2.48546 9.72919,-9.90563 l 0,-10.58009 8.55225,0 z"
         id="path3368"
         inkscape:connector-curvature="0" />
      <path
         style="fill:#008aff;fill-opacity:1;fill-rule:evenodd;stroke:none"
         d="m 328.47808,107.43555 0,9.92664 -8.55225,0 13.55225,47.25109 13.55225,-47.25109 -8.55225,0 0,-9.88758 161.74653,0 0,-10.000001 -161.74653,0 0,-0.03906 c -6.78487,0 -10,3.855231 -10,10.000001 z"
         id="path3368-6-4"
         inkscape:connector-curvature="0" />
    </g>
  </g>
</svg>
